<svg version="1.2" baseProfile="tiny-ps" xmlns="http://www.w3.org/2000/svg" viewBox="0 0 128 128" width="128" height="128">
	<title>coinbase-svg</title>
	<defs>
		<clipPath clipPathUnits="userSpaceOnUse" id="cp1">
			<path d="M63.93 123.86C30.79 123.86 4 97.07 4 63.93C4 30.79 30.79 4 63.93 4C97.07 4 123.86 30.79 123.86 63.93C123.86 97.07 97.07 123.86 63.93 123.86Z" />
		</clipPath>
		<linearGradient id="grd1" gradientUnits="userSpaceOnUse"  x1="7186.73" y1="4" x2="7186.73" y2="14369.461">
			<stop offset="0" stop-color="#2e66f8"  />
			<stop offset="100" stop-color="#124adb"  />
		</linearGradient>
	</defs>
	<style>
		tspan { white-space:pre }
		.shp0 { fill: url(#grd1) } 
		.shp1 { fill: #ffffff } 
	</style>
	<g id="Layer">
		<g id="Layer">
			<g id="Clip-Path" clip-path="url(#cp1)">
				<g id="Layer">
					<path id="Layer" class="shp0" d="M4 52C4 25.49 25.49 4 52 4L75.86 4C102.37 4 123.86 25.49 123.86 52L123.86 75.86C123.86 102.37 102.37 123.86 75.86 123.86L52 123.86C25.49 123.86 4 102.37 4 75.86L4 52Z" />
					<path id="Layer" fill-rule="evenodd" class="shp1" d="M63.93 28.97C83.23 28.97 98.89 44.62 98.89 63.93C98.89 83.23 83.23 98.89 63.93 98.89C44.62 98.89 28.97 83.23 28.97 63.93C28.97 44.62 44.62 28.97 63.93 28.97ZM54.99 52.66C54.69 52.66 54.39 52.72 54.1 52.84C53.82 52.96 53.56 53.13 53.35 53.35C53.13 53.56 52.96 53.82 52.84 54.1C52.72 54.39 52.66 54.69 52.66 54.99L52.66 72.86C52.66 73.17 52.72 73.47 52.84 73.75C52.96 74.04 53.13 74.29 53.35 74.51C53.56 74.73 53.82 74.9 54.1 75.01C54.39 75.13 54.69 75.19 54.99 75.19L72.86 75.19C73.17 75.19 73.47 75.13 73.75 75.01C74.04 74.9 74.29 74.73 74.51 74.51C74.73 74.29 74.9 74.04 75.01 73.75C75.13 73.47 75.19 73.17 75.19 72.86L75.19 54.99C75.19 54.69 75.13 54.39 75.01 54.1C74.9 53.82 74.73 53.56 74.51 53.35C74.29 53.13 74.04 52.96 73.75 52.84C73.47 52.72 73.17 52.66 72.86 52.66L54.99 52.66Z" />
				</g>
			</g>
		</g>
	</g>
</svg>