
<svg xmlns="http://www.w3.org/2000/svg" width="147" height="27">
    <defs>
        <style>
            .cls-1{fill:#666}
        </style>
    </defs>
    <g id="logo_footer" transform="translate(0 .379)">
        <g id="Groups_550" data-name="Groups 550" transform="translate(0 -.379)">
            <path id="Conture_51" data-name="Conture 51" class="cls-1" d="M780.1 492.917a1 1 0 0 0-.842-.4 1.172 1.172 0 0 0-.924.445q-.381.445-1.087 1.385t-1.168 1.484a5.62 5.62 0 0 1-1.277 1.063 3.18 3.18 0 0 1-1.739.519q-1.9 0-4.564-3.957l4.836-5.837a1.963 1.963 0 0 1 1.467-.841 6.28 6.28 0 0 1 1.657.247 5.817 5.817 0 0 0 1.168.247q.923 0 .924-1.261a2.18 2.18 0 0 0-.842-1.88 3.442 3.442 0 0 0-2.092-.618 4.48 4.48 0 0 0-3.478 1.583l-5.217 6.035q-.489-.742-1.956-3.091t-2.5-3.883c-.109-.2-.372-.3-.788-.3a2.31 2.31 0 0 0-1.3.47q-.68.471-.679.866a2.242 2.242 0 0 0 .217.89q1.032 1.584 2.581 4.105t2.2 3.512q-1.143 1.222-2 2.033a1.872 1.872 0 0 0 .48-1.118 1.248 1.248 0 0 0-.516-.989 1.77 1.77 0 0 0-1.141-.421 1.36 1.36 0 0 0-1.06.495q-3.207 3.364-5.488 3.363-1.9 0-1.9-2.325a15.154 15.154 0 0 1 .978-4.6 21.067 21.067 0 0 1 1.6-3.858 3.352 3.352 0 0 0 .625-1.385q0-.4-.57-.742a2.575 2.575 0 0 0-1.358-.346 3.513 3.513 0 0 0-1.413.272 4.272 4.272 0 0 0-1.494 1.706 19.543 19.543 0 0 0-1.739 4.378 22.14 22.14 0 0 0-.758 3.473.738.738 0 0 0-.329.162 11.865 11.865 0 0 1-5 2.918c-.037 0-.172.009-.408.025s-.353-.148-.353-.495a7.887 7.887 0 0 1 .109-1.212 43.569 43.569 0 0 1 1.494-4.526 20.311 20.311 0 0 0 1.385-4.922 1.7 1.7 0 0 0-.815-1.311 3.062 3.062 0 0 0-1.9-.618q-2.119 0-4.836 2.35a30.789 30.789 0 0 0-5.542 6.8 42.24 42.24 0 0 1 2.011-7.321 1.961 1.961 0 0 0 .054-.569 1.124 1.124 0 0 0-.435-.816 1.556 1.556 0 0 0-1.087-.4 2.455 2.455 0 0 0-2.391 1.799q-.615 1.506-1.07 2.987a19.547 19.547 0 0 1-3.74.575 10.947 10.947 0 0 0 .435-3.265 4.628 4.628 0 0 0-1.168-3.19 4.292 4.292 0 0 0-3.125-1.41 5.179 5.179 0 0 0-3.614 1.162 3.674 3.674 0 0 0-1.277 2.819 5.353 5.353 0 0 0 1.114 3.19 7.566 7.566 0 0 0 3.07 2.424 8.735 8.735 0 0 1-.543.89 13.327 13.327 0 0 1-3.043 4.081 5.526 5.526 0 0 1-3.641 1.657q-2.229 0-2.228-2.968a12.583 12.583 0 0 1 1.685-5.688 9.715 9.715 0 0 0 1.3-3.265q0-1.088-1.9-1.088h-.163q-1.522 0-2.826 4.4l-.869 1.781q-3.207 6.678-5.923 6.678-2.119 0-2.119-3.166a11.37 11.37 0 0 1 2.608-6.826q.434-.544.734-.94t.9-1.039a1.076 1.076 0 0 0 .109-.519q0-.321-.625-.841a2.424 2.424 0 0 0-1.6-.519 2.506 2.506 0 0 0-1.9 1.237q-.055.05-.706.915-.309.411-.581.8l-.016.012c-2.319 2.374-4.527 3.759-6.881 4.155a6.642 6.642 0 0 0 .089-1.583 4.886 4.886 0 0 0-1.42-3.759 5.323 5.323 0 0 0-3.831-1.484 9.014 9.014 0 0 0-6.819 3.141 10.292 10.292 0 0 0-2.907 7.2 6.115 6.115 0 0 0 1.739 4.452 5.956 5.956 0 0 0 4.456 1.781q6.357 0 8.151-6.579a17.077 17.077 0 0 0 4.717-1.931 10.826 10.826 0 0 0-.336 2.7 6.13 6.13 0 0 0 1.6 4.452 5.659 5.659 0 0 0 4.264 1.655q3.586 0 6.358-3.957.869 4.057 4.619 4.056a9.19 9.19 0 0 0 5.543-2.028 18.537 18.537 0 0 0 5.542-7.024l.869.049a16.13 16.13 0 0 0 3.161-.327 27.15 27.15 0 0 0-.578 4.976q0 3.71 2.011 3.759a2.185 2.185 0 0 0 1.494-.42 6.24 6.24 0 0 0 1.114-1.9 27.663 27.663 0 0 1 3.614-5.07q2.961-3.586 3.885-3.932h.054c.072 0 .109.074.109.223s-.363 1.245-1.087 3.289a15.438 15.438 0 0 0-1.087 4.7q0 3.116 3.152 3.116a13.584 13.584 0 0 0 7.393-2.923 4.418 4.418 0 0 0 1.138 1.662 5.523 5.523 0 0 0 3.912 1.36 9.871 9.871 0 0 0 5.8-2.021 1.191 1.191 0 0 0-.1.463 2.038 2.038 0 0 0 .625 1.459 1.981 1.981 0 0 0 1.467.643 1.739 1.739 0 0 0 1.44-.841q1.956-2.72 2.826-3.809 3.314 4.452 7.064 4.452a5.659 5.659 0 0 0 4.51-2.226 15.682 15.682 0 0 0 1.576-2.251q.6-1.063.788-1.336a1.482 1.482 0 0 0 .19-.841 1.56 1.56 0 0 0-.302-.968zm-92.056 2.77a3.478 3.478 0 0 1-2.635 1.435q-2.771 0-2.771-3.265a8.137 8.137 0 0 1 1.467-4.575 4.216 4.216 0 0 1 3.532-2.2 1.145 1.145 0 0 1 .842.3 1.468 1.468 0 0 1 .353.94 3.414 3.414 0 0 0-1.413 2.473q0 1.237 2.01 2.028a5.41 5.41 0 0 1-1.382 2.864zm34.62-7.222a3.046 3.046 0 0 1-2.01-2.77 1.907 1.907 0 0 1 .408-1.212 1.234 1.234 0 0 1 1.005-.519q1.249 0 1.25 1.781a7.984 7.984 0 0 1-.65 2.72z" transform="translate(-678.402 -473.732)"/>
            <path id="Conture_52" data-name="Conture 52" class="cls-1" d="M1100.542 450a3.219 3.219 0 0 0 1.021-2.517q0-2.762-3.19-2.762a4.416 4.416 0 0 0-2.839.89 2.934 2.934 0 0 0-1.117 2.424q0 2.886 3.446 2.885a3.85 3.85 0 0 0 2.68-.921" transform="translate(-1019.898 -444.717)"/>
        </g>
        <path id="beta" class="cls-1" d="M1.216-11.2v12h4.805C8.059.8 9.57-.383 9.57-2.406A2.7 2.7 0 0 0 7.5-5.114v-.206a2.681 2.681 0 0 0 2.036-2.709c0-2.006-1.477-3.171-3.5-3.171zm1.392 1.286H5.92a2.018 2.018 0 0 1 2.275 1.988 2 2 0 0 1-2.242 2.057H2.608zm0 5.331h3.329a2 2 0 0 1 2.275 2.057 2.022 2.022 0 0 1-2.259 2.04H2.608zm8.745-6.617v12h7.539V-.486h-6.146v-4.1h5.6v-1.265h-5.6v-4.063h6.079V-11.2zm8.286 0v1.286H23.6V.8h1.392V-9.914h3.973V-11.2zm12.514 0L28.249.8h1.494l.951-3.034h5.077L36.722.8h1.494l-3.905-12zm-1.07 7.7 2.038-6.429h.2L35.363-3.5z" transform="translate(108.784 23.821)"/>
    </g>
</svg>
